<?xml version="1.0" standalone="no"?>
<!DOCTYPE svg PUBLIC "-//W3C//DTD SVG 20010904//EN"
 "http://www.w3.org/TR/2001/REC-SVG-20010904/DTD/svg10.dtd">
<svg version="1.0" xmlns="http://www.w3.org/2000/svg"
 width="700.000000pt" height="700.000000pt" viewBox="0 0 700.000000 700.000000"
 preserveAspectRatio="xMidYMid meet">
<metadata>
Created by potrace 1.11, written by Peter Selinger 2001-2013
</metadata>
<g transform="translate(0.000000,700.000000) scale(0.100000,-0.100000)"
fill="#000000" stroke="none">
<path d="M3308 6995 c-2 -1 -45 -6 -95 -9 -51 -4 -103 -9 -115 -11 -13 -2 -45
-7 -73 -10 -41 -4 -178 -29 -280 -49 -11 -2 -74 -18 -140 -36 -416 -111 -800
-291 -1145 -539 -266 -191 -554 -470 -743 -721 -61 -81 -227 -325 -227 -333 0
-3 -25 -49 -56 -103 -112 -198 -229 -482 -298 -724 -40 -141 -92 -392 -102
-490 -3 -36 -8 -68 -10 -71 -17 -28 -25 -518 -11 -684 21 -253 68 -498 143
-745 20 -63 39 -124 44 -135 5 -11 29 -73 54 -137 165 -428 474 -886 821
-1219 549 -526 1269 -867 2015 -954 206 -24 731 -25 801 -1 8 3 37 7 64 10 28
3 70 8 95 11 67 9 332 69 435 99 50 15 97 29 105 31 27 6 273 102 335 130 80
36 222 107 265 134 19 11 42 24 50 28 43 19 264 165 358 236 150 113 215 170
378 332 281 279 488 567 658 919 95 196 118 249 171 406 71 206 139 490 160
660 3 25 8 65 11 89 19 144 26 610 10 691 -2 14 -7 54 -10 90 -4 36 -8 76 -11
90 -2 14 -6 41 -9 60 -43 276 -143 611 -261 875 -369 824 -995 1442 -1820
1797 -149 64 -439 163 -535 182 -14 3 -45 10 -70 16 -64 16 -247 50 -300 56
-25 2 -61 7 -80 10 -19 3 -55 8 -80 10 -51 5 -497 13 -502 9z m497 -539 c17
-3 47 -7 67 -10 743 -104 1404 -464 1893 -1029 l58 -68 -11 -47 c-7 -26 -46
-166 -87 -312 -42 -146 -78 -272 -80 -281 -2 -9 -22 -81 -45 -160 -23 -79 -43
-151 -45 -159 -2 -8 -22 -80 -45 -160 -23 -80 -48 -167 -55 -195 -15 -55 -193
-683 -281 -995 -31 -107 -63 -221 -71 -253 -9 -32 -17 -56 -18 -55 -2 2 -37
127 -80 278 -106 377 -223 795 -240 855 -8 28 -40 140 -70 250 -31 110 -67
237 -81 282 -14 45 -27 92 -29 103 -4 19 -82 298 -181 645 -25 88 -52 181 -59
207 -7 25 -15 50 -18 55 -3 4 -108 8 -233 8 l-229 0 -28 -100 c-15 -55 -46
-165 -69 -245 -56 -200 -78 -281 -84 -308 -2 -13 -11 -42 -18 -65 -8 -23 -40
-134 -71 -247 -31 -113 -79 -281 -105 -375 -27 -93 -69 -246 -95 -340 -26 -93
-66 -237 -90 -320 -23 -82 -75 -268 -116 -413 -40 -144 -76 -259 -80 -255 -4
5 -12 31 -17 58 -6 28 -13 59 -15 70 -21 82 -40 159 -52 210 -7 33 -46 191
-85 350 -40 160 -73 297 -75 305 -2 8 -33 139 -70 290 -37 151 -68 282 -70
290 -2 8 -13 53 -25 100 -11 47 -23 92 -24 100 -8 32 -119 486 -165 678 -28
111 -52 206 -55 210 -2 4 -139 8 -302 7 l-298 0 -17 -50 c-10 -28 -36 -108
-59 -180 -23 -71 -65 -204 -95 -295 -29 -91 -92 -286 -140 -435 -47 -148 -111
-344 -140 -435 -30 -91 -97 -300 -150 -465 -53 -165 -104 -325 -114 -355 -11
-30 -33 -100 -51 -155 -35 -112 -197 -615 -240 -744 -15 -46 -30 -79 -33 -73
-13 19 -79 178 -108 256 -69 189 -137 487 -154 676 -3 36 -8 83 -11 105 -15
117 -2 522 21 644 1 9 6 41 10 71 4 30 13 80 20 110 8 30 16 69 18 85 12 81
84 309 144 460 354 881 1170 1558 2133 1768 63 14 137 28 164 32 27 3 52 8 56
10 3 2 48 7 100 10 52 4 97 9 100 12 5 5 452 -5 495 -11z m2483 -1916 c73
-194 134 -446 157 -645 3 -27 10 -84 15 -125 8 -77 6 -515 -4 -560 -2 -14 -7
-51 -11 -82 -17 -166 -70 -396 -135 -590 -75 -221 -151 -387 -263 -573 -163
-271 -355 -495 -623 -726 -90 -77 -389 -289 -409 -289 -2 0 -28 -14 -57 -32
-67 -39 -210 -110 -291 -144 -34 -14 -75 -31 -92 -39 -153 -67 -528 -164 -705
-181 -36 -3 -87 -10 -115 -14 -54 -9 -498 -6 -555 4 -19 3 -55 8 -80 11 -25 3
-54 7 -65 9 -11 2 -51 9 -90 16 -38 7 -95 19 -125 27 -30 8 -64 16 -74 18 -96
21 -330 102 -461 160 -288 127 -600 330 -814 530 -138 129 -241 238 -241 256
0 10 20 77 111 369 17 52 31 100 33 105 1 6 19 64 40 130 20 66 39 127 42 135
3 13 77 15 589 14 334 -1 590 -5 595 -10 5 -5 13 -27 18 -49 11 -48 127 -489
147 -561 l14 -50 248 0 248 1 116 405 c65 223 176 610 249 860 72 250 133 462
135 471 2 8 11 40 20 70 9 30 25 83 35 119 14 52 174 608 197 685 5 18 6 18
15 -4 8 -24 92 -306 108 -366 5 -16 36 -124 70 -240 34 -115 67 -232 75 -260
7 -27 43 -151 80 -275 37 -124 73 -250 81 -280 8 -30 28 -98 43 -150 16 -52
31 -104 34 -115 3 -11 32 -112 65 -225 145 -494 175 -597 185 -635 5 -22 14
-45 18 -51 8 -10 493 -15 501 -4 3 3 58 185 123 405 65 220 156 528 202 685
46 157 86 292 88 300 2 8 16 53 30 100 15 47 29 94 32 105 3 11 27 92 53 180
26 88 116 395 201 682 85 287 157 519 160 515 3 -4 20 -45 37 -92z m-4143
-232 c15 -61 49 -191 129 -498 31 -118 58 -222 60 -230 2 -8 14 -51 26 -95 22
-84 27 -103 34 -132 2 -10 18 -72 36 -138 78 -298 108 -420 104 -425 -3 -2
-207 -5 -454 -5 l-449 0 6 25 c8 37 52 177 74 238 10 28 19 54 19 57 0 3 2 10
4 17 77 246 111 357 178 568 44 140 109 351 146 467 36 117 68 211 70 208 2
-2 10 -28 17 -57z"/>
</g>
</svg>
