<svg xmlns="http://www.w3.org/2000/svg" xmlns:xlink="http://www.w3.org/1999/xlink" width="21.915" height="30.682" viewBox="0 0 21.915 30.682"><defs><linearGradient id="a" x1="-0.08" y1="0.463" x2="1.123" y2="0.47" gradientUnits="objectBoundingBox"><stop offset="0" stop-color="#2c7ac0"/><stop offset="1" stop-color="#7364ae"/></linearGradient></defs><path d="M28.226,28.371a15.5,15.5,0,0,1-1.166,6.265A10.755,10.755,0,0,1,23.826,38.9L28.1,42.263,24.727,45.25l-5.479-4.4a11.6,11.6,0,0,1-1.944.159A10.706,10.706,0,0,1,11.6,39.471a10.215,10.215,0,0,1-3.888-4.392,15.09,15.09,0,0,1-1.4-6.566V27.24a15.453,15.453,0,0,1,1.37-6.689,10.2,10.2,0,0,1,3.871-4.436,10.647,10.647,0,0,1,5.717-1.546,10.647,10.647,0,0,1,5.717,1.546,10.2,10.2,0,0,1,3.871,4.436,15.409,15.409,0,0,1,1.37,6.672Zm-5.373-1.166a10.829,10.829,0,0,0-1.449-6.15,4.723,4.723,0,0,0-4.136-2.1,4.724,4.724,0,0,0-4.118,2.077,10.7,10.7,0,0,0-1.467,6.089v1.255a10.964,10.964,0,0,0,1.449,6.115A4.71,4.71,0,0,0,17.3,36.66a4.668,4.668,0,0,0,4.1-2.094,10.9,10.9,0,0,0,1.449-6.106Z" transform="translate(-6.311 -14.568)" fill="url(#a)"/></svg>