<svg xmlns="http://www.w3.org/2000/svg" xmlns:xlink="http://www.w3.org/1999/xlink" width="30.941" height="30.941" viewBox="0 0 30.941 30.941">
  <defs>
    <linearGradient id="linear-gradient" y1="0.603" x2="1.018" y2="0.598" gradientUnits="objectBoundingBox">
      <stop offset="0" stop-color="#2c7ac0"/>
      <stop offset="1" stop-color="#7364ae"/>
    </linearGradient>
  </defs>
  <path id="パス_412" data-name="パス 412" d="M9.149,6.535A2.615,2.615,0,0,0,6.535,3.921,2.615,2.615,0,0,0,3.921,6.535,2.615,2.615,0,0,0,6.535,9.149,2.615,2.615,0,0,0,9.149,6.535ZM30.941,18.3a2.5,2.5,0,0,1-.756,1.838L20.157,30.185a2.615,2.615,0,0,1-1.858.756,2.5,2.5,0,0,1-1.838-.756L1.858,15.562A6.087,6.087,0,0,1,.541,13.5,6.306,6.306,0,0,1,0,11.11v-8.5A2.512,2.512,0,0,1,.776.776,2.512,2.512,0,0,1,2.614,0h8.5A6.306,6.306,0,0,1,13.5.541a6.331,6.331,0,0,1,2.083,1.317l14.6,14.582A2.615,2.615,0,0,1,30.941,18.3Z" transform="translate(0 0)" fill="url(#linear-gradient)"/>
</svg>
