<svg xmlns="http://www.w3.org/2000/svg" viewBox="0 0 87.5 22.5"><defs><style>.a{fill:#fff;}.b{fill:#333;}</style></defs><g transform="translate(3054 -6956)"><rect class="a" width="87.5" height="22.5" transform="translate(-3054 6956)"/><path class="b" d="M-49.209-6.814a2.729,2.729,0,0,0-.723.941,2.275,2.275,0,0,0-.168.9,2.218,2.218,0,0,0,.223,1.016,2.916,2.916,0,0,0,.668.824l-.084.1A2.867,2.867,0,0,1-50.117-4a2.21,2.21,0,0,1-.207-.975,2.165,2.165,0,0,1,.275-1.1,3.049,3.049,0,0,1,.756-.836Zm2.1,3.34V-3.2a.024.024,0,0,1-.027.027h-.129a.024.024,0,0,1-.027-.027l.008-.459V-5.127l0-.531a2.845,2.845,0,0,1-.252.354q-.029.035-.043.035t-.045-.037a.318.318,0,0,0-.088-.066A2.674,2.674,0,0,0-47.32-5.9a3.083,3.083,0,0,0,.23-.475,1.536,1.536,0,0,0,.1-.375,1.722,1.722,0,0,1,.182.053q.039.016.039.043T-46.8-6.6a.969.969,0,0,0-.088.188q-.115.262-.2.42h.736a4.287,4.287,0,0,0,.209-.477,1.169,1.169,0,0,0,.063-.268q.084.02.184.053.041.014.041.043a.068.068,0,0,1-.031.049.408.408,0,0,0-.08.145,4.958,4.958,0,0,1-.205.455h.336l.5-.008q.029,0,.029.027v.117q0,.027-.029.027l-.5-.008H-46.2v.592h.244l.492-.008a.024.024,0,0,1,.027.027v.117a.024.024,0,0,1-.027.027l-.492-.008H-46.2v.611h.248l.492-.008a.024.024,0,0,1,.027.027v.121q0,.023-.027.023l-.492-.008H-46.2v.684h.4l.508-.008a.024.024,0,0,1,.027.027v.121a.024.024,0,0,1-.027.027l-.508-.008Zm0-.16h.736v-.684h-.736Zm0-.84h.736v-.611h-.736Zm0-.768h.736v-.592h-.736Zm-.912.551v.576l0,.537q0,.225-.1.291a.519.519,0,0,1-.3.066l-.115,0a.107.107,0,0,1-.061-.01.15.15,0,0,1-.02-.051.5.5,0,0,0-.068-.141,2.481,2.481,0,0,0,.316.018.152.152,0,0,0,.131-.049.292.292,0,0,0,.029-.152V-4.619q-.158.064-.312.121a.362.362,0,0,0-.143.076.092.092,0,0,1-.053.031q-.023,0-.041-.031a1.333,1.333,0,0,1-.07-.189,2.467,2.467,0,0,0,.352-.1q.107-.035.268-.1v-.939h-.172l-.389.008q-.027,0-.027-.029v-.127q0-.029.027-.029l.389.01h.172v-.365a2.633,2.633,0,0,0-.027-.459,1.517,1.517,0,0,1,.207.023q.039.006.039.027A.238.238,0,0,1-48-6.607a1.726,1.726,0,0,0-.016.328v.369h.041l.391-.01a.026.026,0,0,1,.029.029v.127a.026.026,0,0,1-.029.029l-.391-.008h-.041v.867a3.969,3.969,0,0,0,.48-.232.709.709,0,0,0-.006.082q0,.02,0,.039t0,.033q0,.037-.059.066Q-47.742-4.811-48.018-4.691Zm5.1.613a1.415,1.415,0,0,0,.746.531,4.963,4.963,0,0,0,.934.189.417.417,0,0,0-.088.115q-.025.059-.049.059a.281.281,0,0,1-.043-.006,3.641,3.641,0,0,1-.992-.275,1.525,1.525,0,0,1-.648-.564,1.213,1.213,0,0,1-.707.631,3.785,3.785,0,0,1-.861.213l-.043.006q-.023,0-.049-.055a.324.324,0,0,0-.088-.111q1.322-.143,1.576-.732h-.844l-.549.008a.024.024,0,0,1-.027-.027v-.121a.024.024,0,0,1,.027-.027l.549.008h.9l.012-.1q.01-.109.01-.176a.888.888,0,0,0-.01-.137q.109.012.188.023.057.016.057.045a.118.118,0,0,1-.014.043l-.02.045q-.008.029-.027.176,0,.012-.01.041L-43-4.238h1.068l.543-.008a.024.024,0,0,1,.027.027V-4.1a.024.024,0,0,1-.027.027l-.543-.008Zm.955-1.2h-1.076l-.557.008a.024.024,0,0,1-.027-.027v-.117a.024.024,0,0,1,.027-.027l.557.008h1.076v-.008a1.1,1.1,0,0,0-.02-.229,1.009,1.009,0,0,1,.18.023q.053.01.053.033a.12.12,0,0,1-.016.047.269.269,0,0,0-.025.133l.432-.008q.029,0,.029.027V-5.3q0,.027-.029.027l-.432-.008v.348l0,.2a.376.376,0,0,1-.025.162.222.222,0,0,1-.07.07.765.765,0,0,1-.4.068h-.066a.119.119,0,0,1-.062-.01.1.1,0,0,1-.021-.051.238.238,0,0,0-.055-.123q.168.016.328.016a.246.246,0,0,0,.154-.037.16.16,0,0,0,.045-.127Zm-1.98-.068q-.129.09-.5.3a.669.669,0,0,0-.145.092.058.058,0,0,1-.043.027.058.058,0,0,1-.045-.031q-.027-.043-.084-.156a1.8,1.8,0,0,0,.229-.084,4.511,4.511,0,0,0,.588-.32V-6.3a2.545,2.545,0,0,0-.027-.436,1.338,1.338,0,0,1,.2.023q.049.006.049.031a.167.167,0,0,1-.029.072,1.206,1.206,0,0,0-.02.3v1.336l.008.539q0,.029-.027.029h-.133q-.027,0-.027-.029l.008-.539Zm2.229-1.379a.753.753,0,0,1,.137.1q.031.025.031.043,0,.037-.061.037a.766.766,0,0,0-.127.027,12.193,12.193,0,0,1-1.652.271l-.031,0q-.033,0-.061-.057a.291.291,0,0,0-.076-.1A8.9,8.9,0,0,0-41.9-6.646.569.569,0,0,0-41.717-6.727Zm-1.611.68a.041.041,0,0,1-.012-.02q0-.012.039-.029l.053-.02a.1.1,0,0,1,.035-.01.033.033,0,0,1,.025.014,1.925,1.925,0,0,1,.207.412.045.045,0,0,1,0,.016q0,.018-.049.037l-.047.02a.17.17,0,0,1-.049.016q-.014,0-.02-.023A1.338,1.338,0,0,0-43.328-6.047Zm.752-.129a1.59,1.59,0,0,1,.184.412.119.119,0,0,1,0,.016q0,.016-.041.033l-.053.02a.189.189,0,0,1-.049.014q-.014,0-.02-.021a1.832,1.832,0,0,0-.168-.412.034.034,0,0,1-.006-.014q0-.012.041-.029l.049-.021a.215.215,0,0,1,.039-.012Q-42.588-6.191-42.576-6.176Zm-.553,1.137q-.012-.01-.012-.016t.027-.037l.045-.035q.029-.025.039-.025a.035.035,0,0,1,.021.01,2.414,2.414,0,0,1,.367.344.027.027,0,0,1,.01.018q0,.016-.029.043l-.045.035q-.035.033-.047.033t-.018-.014A2.009,2.009,0,0,0-43.129-5.039ZM-44.5-6.352a2.3,2.3,0,0,1,.334.424.038.038,0,0,1,.008.02q0,.012-.035.037l-.051.035a.143.143,0,0,1-.049.029q-.008,0-.016-.016a1.813,1.813,0,0,0-.32-.43q-.016-.012-.016-.021t.031-.033l.049-.033a.163.163,0,0,1,.041-.023A.039.039,0,0,1-44.5-6.352Zm2.268.725a3.144,3.144,0,0,0,.324-.516.557.557,0,0,0,.061-.189,1.111,1.111,0,0,1,.18.068.05.05,0,0,1,.027.041q0,.018-.035.039a.229.229,0,0,0-.057.076,5.213,5.213,0,0,1-.309.488q-.023.035-.041.035a.142.142,0,0,1-.051-.02A.34.34,0,0,0-42.232-5.627Zm3.975.035h.146q.426,0,.656-.012.049,0,.049.045v.123q0,.045-.031.045l-.018,0q-.227-.008-.652-.008h-.15a2.613,2.613,0,0,1-.281,1.279,1.794,1.794,0,0,1-.984.771.1.1,0,0,1-.037.01.064.064,0,0,1-.043-.025.522.522,0,0,0-.158-.111,1.671,1.671,0,0,0,1.051-.748A2.56,2.56,0,0,0-38.467-5.4h-1.076v.217q0,.135.006.346.006.262.006.3a.031.031,0,0,1-.035.035.628.628,0,0,1-.076,0,.732.732,0,0,1-.08,0q-.035,0-.035-.039.012-.623.012-.631V-5.4h-.24q-.314,0-.6.014h-.012q-.027,0-.033-.049,0-.033-.012-.172.3.016.652.016h.24v-.344a2.578,2.578,0,0,0-.049-.549,1.171,1.171,0,0,1,.271.045q.035.012.035.041a.128.128,0,0,1-.02.059,1.251,1.251,0,0,0-.035.4v.344h1.076v-.344a3.407,3.407,0,0,0-.039-.613,1.245,1.245,0,0,1,.25.045q.047.014.047.051a.1.1,0,0,1-.014.045,1.627,1.627,0,0,0-.035.457Zm3.4.018v1.463q0,.332.012.684,0,.041-.035.041l-.088,0-.09,0q-.031,0-.031-.041.012-.34.012-.672V-5.379a7.625,7.625,0,0,1-1.312.947.056.056,0,0,1-.029.01.062.062,0,0,1-.043-.021.393.393,0,0,0-.15-.1,7.5,7.5,0,0,0,1.244-.848,6.441,6.441,0,0,0,.795-.8,1.206,1.206,0,0,0,.229-.393.79.79,0,0,1,.225.152.065.065,0,0,1,.021.047.051.051,0,0,1-.033.049,1.045,1.045,0,0,0-.217.209A7.242,7.242,0,0,1-34.855-5.574Zm4.557-.9.119-.084a.033.033,0,0,1,.016-.006.035.035,0,0,1,.018.006,1.764,1.764,0,0,1,.451.484.023.023,0,0,1,.008.016.032.032,0,0,1-.012.02l-.1.08a.029.029,0,0,1-.018.008.037.037,0,0,1-.027-.018A1.809,1.809,0,0,0-30.3-6.479Zm.336-.248.1-.08a.042.042,0,0,1,.021-.01.024.024,0,0,1,.014.006,1.884,1.884,0,0,1,.451.459.04.04,0,0,1,.008.021.032.032,0,0,1-.014.023l-.092.08a.035.035,0,0,1-.018.006.031.031,0,0,1-.023-.016A1.858,1.858,0,0,0-29.963-6.727Zm-.992,1.891A8.162,8.162,0,0,1-29.8-3.824a.069.069,0,0,1,.025.041.068.068,0,0,1-.02.035q-.029.033-.109.113a.037.037,0,0,1-.023.014.059.059,0,0,1-.035-.021,7.042,7.042,0,0,0-1.125-1.029,5.85,5.85,0,0,1-1.443,1.133.094.094,0,0,1-.041.014.054.054,0,0,1-.039-.021.5.5,0,0,0-.168-.115,5.333,5.333,0,0,0,1.473-1.1,5.022,5.022,0,0,0,.764-1.1h-1.248q-.352,0-.561.021h-.012a.033.033,0,0,1-.035-.033,1.079,1.079,0,0,1-.018-.2q.193.012.6.012h1.176a.422.422,0,0,0,.2-.033.06.06,0,0,1,.027-.006.076.076,0,0,1,.053.02.7.7,0,0,1,.123.115.065.065,0,0,1,.018.045.053.053,0,0,1-.029.051.349.349,0,0,0-.1.123A6.14,6.14,0,0,1-30.955-4.836Zm5.869-.707-.605,2H-26l-.336-1.236q-.064-.236-.133-.564h-.045q-.084.4-.127.564l-.336,1.236h-.309l-.6-2h.268l.328,1.244q.076.3.137.561h.043l.129-.557.332-1.248h.32l.332,1.232q.043.16.127.572h.045q.068-.318.139-.568l.34-1.236Zm1.443-.908v2.7h.539v.213h-1.363v-.213h.576V-6.18a2.794,2.794,0,0,1-.588.3l-.045-.232a2.885,2.885,0,0,0,.676-.34Zm2.867.041v.2a5.592,5.592,0,0,0-.615,1.326,6.34,6.34,0,0,0-.248,1.34h-.285a6.087,6.087,0,0,1,.328-1.5,6.224,6.224,0,0,1,.561-1.141h-1.4V-6.41Zm2.109,0v.221h-1.182l-.035.76q0,.086-.023.336a.613.613,0,0,1,.252-.229.681.681,0,0,1,.309-.072.709.709,0,0,1,.584.281,1.009,1.009,0,0,1,.2.643,1,1,0,0,1-.281.756.78.78,0,0,1-.566.225.789.789,0,0,1-.8-.533l.244-.1a.553.553,0,0,0,.557.42.51.51,0,0,0,.443-.227.9.9,0,0,0,.141-.525.816.816,0,0,0-.168-.555.5.5,0,0,0-.389-.164.533.533,0,0,0-.344.119.624.624,0,0,0-.191.281l-.209-.033.068-1.6Zm1.5-.049-.08.623.5-.371.133.232-.588.244.588.248-.133.227-.508-.383.084.631h-.275l.08-.627-.5.375L-18-5.486l.588-.248L-18-5.979l.137-.232.5.375-.08-.623Zm1.461-.053V-5.18a.952.952,0,0,1,.723-.412.544.544,0,0,1,.424.17.558.558,0,0,1,.137.391v1.488h-.252V-4.924q0-.443-.371-.443a.864.864,0,0,0-.66.416v1.408h-.248V-6.512Zm3.268.064v2.01h.424v.207h-.424v.688h-.229V-4.23h-1.176v-.2l1.057-2.021Zm-.229,2.01v-1.2q0-.119.008-.607H-12.7q-.121.295-.262.561L-13.6-4.437ZM-9.992-6.41v.221h-1.182l-.035.76q0,.086-.023.336a.613.613,0,0,1,.252-.229.681.681,0,0,1,.309-.072.709.709,0,0,1,.584.281,1.009,1.009,0,0,1,.2.643,1,1,0,0,1-.281.756.78.78,0,0,1-.566.225.789.789,0,0,1-.8-.533l.244-.1a.553.553,0,0,0,.557.42.51.51,0,0,0,.443-.227.9.9,0,0,0,.141-.525.816.816,0,0,0-.168-.555.5.5,0,0,0-.389-.164.533.533,0,0,0-.344.119.624.624,0,0,0-.191.281l-.209-.033.068-1.6Zm1.049.867v.32a.708.708,0,0,1,.615-.369.691.691,0,0,1,.6.311,1.245,1.245,0,0,1,.2.73A1.167,1.167,0,0,1-7.8-3.74a.705.705,0,0,1-.547.246.657.657,0,0,1-.588-.365v1.041h-.248V-5.543Zm.008.568V-4.1a.647.647,0,0,0,.553.389.5.5,0,0,0,.441-.246,1.054,1.054,0,0,0,.15-.6,1.023,1.023,0,0,0-.18-.648.476.476,0,0,0-.389-.187A.654.654,0,0,0-8.936-4.975Zm3.42-.568-.635.965.691,1.035H-5.74l-.443-.691-.059-.092q-.033-.055-.053-.084l-.113.176-.432.691h-.271l.68-1.027-.645-.973h.281l.4.633q.053.086.119.18l.115-.2.377-.615Zm2.275-.289a2.471,2.471,0,0,0,.48.924,2.618,2.618,0,0,0,.688.545.347.347,0,0,0-.111.1q-.031.043-.047.043a.136.136,0,0,1-.051-.027,2.61,2.61,0,0,1-.66-.6A2.448,2.448,0,0,1-3.312-5.6a1.9,1.9,0,0,1-.088.287,2.062,2.062,0,0,1-.346.588,2.333,2.333,0,0,1-.588.477.159.159,0,0,1-.051.027q-.014,0-.041-.039a.329.329,0,0,0-.1-.1,2.212,2.212,0,0,0,.666-.516,1.889,1.889,0,0,0,.295-.5,1.987,1.987,0,0,0,.115-.469H-4.605v1.961l.008.592a.024.024,0,0,1-.027.027H-4.77A.024.024,0,0,1-4.8-3.279l.008-.6V-5.371L-4.8-5.984a.024.024,0,0,1,.027-.027L-4.2-6h.764q.016-.182.016-.4a2.249,2.249,0,0,0-.023-.383,2.006,2.006,0,0,1,.217.023q.039.006.039.035s-.007.025-.02.072a1.46,1.46,0,0,0-.023.3q0,.131-.02.348h.863l.568-.008a.024.024,0,0,1,.027.027l-.008.625v1.141l.008.619a.29.29,0,0,1-.1.244.944.944,0,0,1-.477.068.113.113,0,0,1-.061-.01.249.249,0,0,1-.023-.059A.338.338,0,0,0-2.518-3.5a3.053,3.053,0,0,0,.346.021.248.248,0,0,0,.154-.039.164.164,0,0,0,.033-.117v-2.2Zm2.123-.982.084-.1a2.867,2.867,0,0,1,.824.961A2.21,2.21,0,0,1,0-4.975a2.17,2.17,0,0,1-.273,1.1,3,3,0,0,1-.758.836l-.084-.1a2.738,2.738,0,0,0,.723-.943,2.26,2.26,0,0,0,.168-.9A2.23,2.23,0,0,0-.449-5.992,2.857,2.857,0,0,0-1.117-6.814Z" transform="translate(-2984.838 6978.455)"/><path class="b" d="M2.439-7.254h2.79v.734H1.566v-6.448h.873Zm9.382-2.489a3.722,3.722,0,0,1-.229,1.33,3.045,3.045,0,0,1-.648,1.042,2.9,2.9,0,0,1-1.006.677,3.392,3.392,0,0,1-1.3.241,3.375,3.375,0,0,1-1.3-.241,2.9,2.9,0,0,1-1-.677,3.045,3.045,0,0,1-.648-1.042,3.722,3.722,0,0,1-.229-1.33,3.722,3.722,0,0,1,.229-1.33,3.069,3.069,0,0,1,.648-1.044,2.912,2.912,0,0,1,1-.682,3.347,3.347,0,0,1,1.3-.243,3.364,3.364,0,0,1,1.3.243,2.907,2.907,0,0,1,1.006.682,3.069,3.069,0,0,1,.648,1.044A3.722,3.722,0,0,1,11.821-9.743Zm-.9,0a3.277,3.277,0,0,0-.162-1.066,2.256,2.256,0,0,0-.459-.8,1.992,1.992,0,0,0-.72-.5,2.444,2.444,0,0,0-.945-.175,2.432,2.432,0,0,0-.94.175,2.013,2.013,0,0,0-.722.5,2.237,2.237,0,0,0-.461.8,3.277,3.277,0,0,0-.162,1.066,3.257,3.257,0,0,0,.162,1.064,2.24,2.24,0,0,0,.461.8,1.989,1.989,0,0,0,.722.5,2.46,2.46,0,0,0,.94.173,2.472,2.472,0,0,0,.945-.173,1.968,1.968,0,0,0,.72-.5,2.259,2.259,0,0,0,.459-.8A3.257,3.257,0,0,0,10.926-9.743ZM15.89-7.155a4.272,4.272,0,0,0,.479-.025,3.046,3.046,0,0,0,.412-.074,2.8,2.8,0,0,0,.365-.119q.171-.07.342-.16V-8.955h-1A.19.19,0,0,1,16.351-9a.162.162,0,0,1-.052-.122v-.495h1.98v2.475a3.578,3.578,0,0,1-.506.306,3.448,3.448,0,0,1-.562.218,4.073,4.073,0,0,1-.641.131,6,6,0,0,1-.743.043,3.35,3.35,0,0,1-1.287-.241,2.964,2.964,0,0,1-1.008-.675,3.064,3.064,0,0,1-.659-1.042,3.658,3.658,0,0,1-.236-1.337,3.748,3.748,0,0,1,.232-1.345,2.96,2.96,0,0,1,.661-1.042,2.956,2.956,0,0,1,1.039-.673,3.722,3.722,0,0,1,1.366-.239,4.218,4.218,0,0,1,.711.056,3.324,3.324,0,0,1,.61.162,2.84,2.84,0,0,1,.52.257,3.176,3.176,0,0,1,.445.34l-.248.4a.228.228,0,0,1-.2.122.319.319,0,0,1-.158-.05q-.113-.063-.252-.153a2.158,2.158,0,0,0-.34-.173,2.735,2.735,0,0,0-.472-.142,3.111,3.111,0,0,0-.646-.059,2.615,2.615,0,0,0-.986.178,2.085,2.085,0,0,0-.752.509,2.25,2.25,0,0,0-.477.8,3.147,3.147,0,0,0-.167,1.055A3.2,3.2,0,0,0,13.7-8.651a2.3,2.3,0,0,0,.488.812,2.107,2.107,0,0,0,.747.509A2.512,2.512,0,0,0,15.89-7.155Zm9.72-2.588a3.722,3.722,0,0,1-.229,1.33,3.045,3.045,0,0,1-.648,1.042,2.9,2.9,0,0,1-1.006.677,3.392,3.392,0,0,1-1.3.241,3.375,3.375,0,0,1-1.3-.241,2.9,2.9,0,0,1-1-.677,3.045,3.045,0,0,1-.648-1.042,3.722,3.722,0,0,1-.229-1.33,3.722,3.722,0,0,1,.229-1.33,3.069,3.069,0,0,1,.648-1.044,2.912,2.912,0,0,1,1-.682,3.347,3.347,0,0,1,1.3-.243,3.364,3.364,0,0,1,1.3.243,2.907,2.907,0,0,1,1.006.682,3.069,3.069,0,0,1,.648,1.044A3.722,3.722,0,0,1,25.61-9.743Zm-.9,0a3.277,3.277,0,0,0-.162-1.066,2.256,2.256,0,0,0-.459-.8,1.992,1.992,0,0,0-.72-.5,2.444,2.444,0,0,0-.945-.175,2.432,2.432,0,0,0-.941.175,2.013,2.013,0,0,0-.722.5,2.237,2.237,0,0,0-.461.8,3.277,3.277,0,0,0-.162,1.066A3.257,3.257,0,0,0,20.3-8.678a2.24,2.24,0,0,0,.461.8,1.989,1.989,0,0,0,.722.5,2.46,2.46,0,0,0,.941.173,2.472,2.472,0,0,0,.945-.173,1.968,1.968,0,0,0,.72-.5,2.259,2.259,0,0,0,.459-.8A3.257,3.257,0,0,0,24.714-9.743Z" transform="translate(-3023.283 6974.021)"/></g></svg>