<svg xmlns="http://www.w3.org/2000/svg" xmlns:xlink="http://www.w3.org/1999/xlink" width="19.45" height="19.45" viewBox="0 0 19.45 19.45">
  <defs>
    <linearGradient id="linear-gradient" x1="-0.057" y1="0.458" x2="1.055" y2="0.468" gradientUnits="objectBoundingBox">
      <stop offset="0" stop-color="#2c7ac0"/>
      <stop offset="1" stop-color="#7364ae"/>
    </linearGradient>
  </defs>
  <path id="パス_413" data-name="パス 413" d="M13.465,8.229a5.043,5.043,0,0,0-1.537-3.7,5.043,5.043,0,0,0-3.7-1.537,5.043,5.043,0,0,0-3.7,1.537,5.043,5.043,0,0,0-1.537,3.7,5.043,5.043,0,0,0,1.537,3.7,5.043,5.043,0,0,0,3.7,1.537,5.043,5.043,0,0,0,3.7-1.537A5.043,5.043,0,0,0,13.465,8.229Zm5.985,9.725a1.517,1.517,0,0,1-1.5,1.5,1.389,1.389,0,0,1-1.052-.444l-4.009-4a8,8,0,0,1-4.664,1.449,8.086,8.086,0,0,1-3.2-.649A8.058,8.058,0,0,1,.649,11.426a8.2,8.2,0,0,1,0-6.394A8.058,8.058,0,0,1,5.032.649a8.2,8.2,0,0,1,6.394,0,8.058,8.058,0,0,1,4.383,4.383,8.086,8.086,0,0,1,.649,3.2,8,8,0,0,1-1.449,4.664L19.017,16.9A1.432,1.432,0,0,1,19.45,17.954Z" fill="url(#linear-gradient)"/>
</svg>
